<?xml version="1.0" encoding="UTF-8" standalone="no"?>
<!DOCTYPE svg PUBLIC "-//W3C//DTD SVG 1.1//EN" "http://www.w3.org/Graphics/SVG/1.1/DTD/svg11.dtd">
<svg width="100%" height="100%" viewBox="0 0 1080 1080" version="1.1" xmlns="http://www.w3.org/2000/svg" xmlns:xlink="http://www.w3.org/1999/xlink" xml:space="preserve" xmlns:serif="http://www.serif.com/" style="fill-rule:evenodd;clip-rule:evenodd;stroke-linejoin:round;stroke-miterlimit:2;">
    <g transform="matrix(0.707107,0.707107,-0.707107,0.707107,722.661,-12.4298)">
        <path d="M516.186,259.099C540.663,78.815 405.291,-43.189 254.556,-50.065C127.066,-55.88 -48.986,71.688 -7.643,274.042C23.352,425.745 155.954,452.722 156.107,524.671C156.273,602.378 -0.647,647.924 4.477,828.226C8.11,956.056 107.054,1087.3 270.779,1088.95C454.294,1090.81 570.094,903.82 531.419,761.683C497.979,638.785 374.027,560.751 363.664,496.249C353.043,430.136 499.289,383.553 516.186,259.099Z" style="fill:rgb(79,70,229);"/>
    </g>
    <g transform="matrix(3.19358,0,0,3.19358,338.578,9.09672)">
        <circle cx="119.154" cy="58.241" r="24.512" style="fill:white;"/>
    </g>
    <g transform="matrix(3.19358,0,0,3.19358,-89.9059,453.284)">
        <circle cx="119.154" cy="58.241" r="24.512" style="fill:white;"/>
    </g>
</svg>
